<svg version="1.1" id="Layer_1" xmlns="http://www.w3.org/2000/svg" xmlns:xlink="http://www.w3.org/1999/xlink" x="0px" y="0px"
   viewBox="-146.4 176.6 547.8 448" style="enable-background:new -146.4 176.6 547.8 448;" xml:space="preserve">
<style type="text/css">
  .st0{fill:#F15A24;}
  .st1{fill:#FFFFFF;}
</style>
<path class="st0" d="M-134.4,624.6h523.8c6.6,0,12-5.4,12-12v-424c0-6.6-5.4-12-12-12h-523.8c-6.6,0-12,5.4-12,12v424
  C-146.4,619.2-141,624.6-134.4,624.6z"/>
<path class="st1" d="M346,521.9c-0.2,0-0.4,0-0.5,0c-15.4-15.2-49.9-25.5-72.3-57.3c-15.5-22-5.1-25.9-20.9-62.7
  c-3.7-8.5-17.1-38.3-44.9-67.7c-2.3-9.5-7-32.6-2.3-46.2c4.7-13.7,41.8-65.4,41.8-65.4s-2.7-14.8-32.4,9.4
  c-33,16.9-49.9,14.2-56.6,29.7c-0.6,1.5-1.2,3.1-1.7,4.8l-0.4-46.6c0,0-3.4-7.4-14.2-2c-10.8,5.4-33,27.6-33,27.6
  s-27.1,32.4-68.1,61.2c-67,47-108.2,58-128.8,66.2c-71.1,28.3,140.4,237.8,207.6,209c14.8-6.4,20.3-20.5,42.5-24.3
  c26.6-4.5,33.9,13.5,78.2,21.6c5.9,1.1,11.4,1.8,16.5,2.2c6.9,2.4,15.4,3.9,24.6,3.9c15.4,0,28.9-4,36.3-10.1
  c11.2-2.7,20.9-6.7,27.7-15.6c0.8-1.1,5.1-6.6,7.1-13.7c3.1-2.4,5.1-6.4,5.1-10.9C357.4,527.8,352.3,521.9,346,521.9z M217.1,447.6
  c-1.1,19.2-27.4-2.7-24.1-12.1C192.9,435.5,218.7,419.5,217.1,447.6z"/>
</svg>
